<svg xmlns="http://www.w3.org/2000/svg" xmlns:xlink="http://www.w3.org/1999/xlink" style="isolation:isolate" viewBox="0 0 36 18" width="36pt" height="18pt"><defs><clipPath id="_clipPath_FUZhga7dbXt01JU1LWgHUtjeZyvSSlU5"><rect width="36" height="18"/></clipPath></defs><g clip-path="url(#_clipPath_FUZhga7dbXt01JU1LWgHUtjeZyvSSlU5)"><path d="M 2 0 L 16 0 C 17.104 0 18 0.896 18 2 L 18 16 C 18 17.104 17.104 18 16 18 L 2 18 C 0.896 18 0 17.104 0 16 L 0 2 C 0 0.896 0.896 0 2 0 Z" style="stroke:none;fill:#E8E8E8;stroke-miterlimit:10;"/><path d="M 2 0 L 16 0 C 17.104 0 18 0.896 18 2 L 18 16 C 18 17.104 17.104 18 16 18 L 2 18 C 0.896 18 0 17.104 0 16 L 0 2 C 0 0.896 0.896 0 2 0 Z" style="fill:none;stroke:#000000;stroke-width:2;stroke-linecap:square;stroke-miterlimit:2;"/><path d=" M 13.865 4.669 L 8.1 10.407 L 5.147 7.452 L 3.852 8.748 L 7.452 12.348 L 8.099 12.966 L 8.746 12.348 L 15.131 5.936 L 13.865 4.669 Z " fill="rgb(226,0,22)"/><path d="M 20 0 L 34 0 C 35.104 0 36 0.896 36 2 L 36 16 C 36 17.104 35.104 18 34 18 L 20 18 C 18.896 18 18 17.104 18 16 L 18 2 C 18 0.896 18.896 0 20 0 Z" style="stroke:none;fill:#E8E8E8;stroke-miterlimit:10;"/><path d="M 20 0 L 34 0 C 35.104 0 36 0.896 36 2 L 36 16 C 36 17.104 35.104 18 34 18 L 20 18 C 18.896 18 18 17.104 18 16 L 18 2 C 18 0.896 18.896 0 20 0 Z" style="fill:none;stroke:#000000;stroke-width:2;stroke-linecap:square;stroke-miterlimit:2;"/></g></svg>
